<?xml version="1.0" standalone="no"?>
<!DOCTYPE svg PUBLIC "-//W3C//DTD SVG 20010904//EN"
 "http://www.w3.org/TR/2001/REC-SVG-20010904/DTD/svg10.dtd">
<svg version="1.0" xmlns="http://www.w3.org/2000/svg"
 width="326.000000pt" height="94.000000pt" viewBox="0 0 326.000000 94.000000"
 preserveAspectRatio="xMidYMid meet">

<g transform="translate(0.000000,94.000000) scale(0.100000,-0.100000)"
fill="#000000" stroke="none">
<path d="M7 923 c-4 -3 -7 -213 -7 -465 l0 -458 1625 0 1625 0 0 465 0 465
-1618 0 c-890 0 -1622 -3 -1625 -7z m3213 -458 l0 -435 -1595 0 -1595 0 0 435
0 435 1595 0 1595 0 0 -435z"/>
<path d="M695 821 c-89 -23 -166 -83 -210 -162 -27 -49 -30 -62 -30 -149 0
-87 3 -100 30 -149 27 -48 97 -121 117 -121 19 0 5 25 -33 62 -161 156 -95
422 119 484 183 53 363 -82 364 -273 1 -86 -24 -145 -86 -208 -25 -25 -46 -50
-46 -55 0 -22 27 -7 76 43 185 192 60 514 -206 532 -36 2 -78 1 -95 -4z"/>
<path d="M715 751 c-75 -19 -143 -78 -165 -146 -20 -62 -9 -156 25 -205 37
-54 45 -33 11 30 -76 140 19 300 179 300 161 0 256 -161 180 -305 -33 -62 -27
-82 9 -28 39 58 49 113 35 181 -9 46 -20 64 -63 107 -65 66 -129 86 -211 66z"/>
<path d="M681 654 c-18 -23 -21 -41 -21 -120 0 -56 4 -94 10 -94 6 0 10 42 10
105 0 121 3 125 93 125 74 0 81 -10 88 -134 l5 -101 2 103 c2 130 -6 142 -102
142 -58 0 -67 -3 -85 -26z"/>
<path d="M702 648 c-8 -8 -12 -47 -12 -110 l0 -98 75 0 75 0 0 98 c0 63 -4
102 -12 110 -7 7 -35 12 -63 12 -28 0 -56 -5 -63 -12z"/>
<path d="M1231 558 c-25 -60 -69 -180 -73 -198 -5 -23 60 -22 73 2 15 27 95
26 104 -2 5 -16 14 -20 41 -18 19 1 34 7 34 12 0 5 -21 63 -46 128 l-46 118
-35 0 c-30 0 -36 -4 -52 -42z m73 -105 c6 -20 4 -23 -18 -23 -29 0 -31 6 -15
47 11 30 19 24 33 -24z"/>
<path d="M1447 594 c-4 -4 -7 -41 -7 -83 0 -125 40 -176 130 -167 32 3 51 11
67 31 21 23 23 36 23 126 l0 99 -35 0 -34 0 -3 -92 -3 -93 -30 0 -30 0 -5 90
-5 90 -30 3 c-17 2 -34 0 -38 -4z"/>
<path d="M1720 470 l0 -130 74 4 c41 3 87 11 104 20 39 20 66 78 58 125 -12
77 -63 109 -173 110 l-63 1 0 -130z m144 44 c37 -36 7 -104 -46 -104 -28 0
-28 1 -28 60 0 60 0 60 29 60 16 0 37 -7 45 -16z"/>
<path d="M2000 469 l0 -130 33 3 32 3 3 128 3 127 -36 0 -35 0 0 -131z"/>
<path d="M2180 587 c-36 -18 -70 -74 -70 -116 0 -127 168 -178 249 -75 42 53
20 158 -39 189 -35 18 -106 19 -140 2z m93 -58 c28 -15 37 -28 37 -58 0 -66
-97 -86 -121 -25 -11 32 5 72 33 84 30 12 26 12 51 -1z"/>
<path d="M2424 587 c-2 -7 -3 -65 -2 -128 l3 -114 35 0 c33 0 35 2 38 38 3 36
4 37 43 37 37 0 39 2 39 30 0 28 -2 30 -40 30 -36 0 -40 3 -40 25 0 23 4 25
45 25 45 0 45 0 45 35 l0 35 -80 0 c-57 0 -82 -4 -86 -13z"/>
<path d="M2610 596 c0 -2 19 -37 42 -78 28 -48 44 -90 48 -123 5 -48 6 -50 35
-50 29 0 30 2 35 50 4 34 19 73 48 122 23 39 42 74 42 77 0 3 -18 6 -40 6 -38
0 -42 -3 -62 -45 l-22 -46 -23 46 c-22 42 -26 45 -63 45 -22 0 -40 -2 -40 -4z"/>
<path d="M654 421 c-2 -2 -4 -36 -4 -75 0 -78 17 -116 51 -116 11 0 22 -7 25
-15 8 -20 70 -20 78 0 3 8 14 15 24 15 38 0 52 31 52 113 l0 76 -111 3 c-61 2
-113 1 -115 -1z m134 -38 c5 -17 -26 -29 -40 -15 -6 6 -7 15 -3 22 9 14 37 9
43 -7z m21 -65 c17 -45 -39 -87 -75 -58 -17 15 -18 52 -2 68 21 21 68 15 77
-10z"/>
<path d="M760 380 c0 -5 5 -10 10 -10 6 0 10 5 10 10 0 6 -4 10 -10 10 -5 0
-10 -4 -10 -10z"/>
<path d="M735 309 c-10 -30 18 -58 43 -43 9 6 17 22 17 35 0 34 -50 41 -60 8z
m53 -12 c4 -20 -25 -34 -40 -19 -15 15 -1 44 19 40 10 -2 19 -11 21 -21z"/>
<path d="M755 301 c-6 -11 9 -23 19 -14 9 9 7 23 -3 23 -6 0 -12 -4 -16 -9z"/>
<path d="M753 173 c9 -2 23 -2 30 0 6 3 -1 5 -18 5 -16 0 -22 -2 -12 -5z"/>
<path d="M736 145 c-3 -8 -14 -15 -24 -15 -18 0 -42 -18 -42 -32 0 -4 43 -8
95 -8 78 0 95 3 95 15 0 9 -12 18 -30 22 -16 3 -30 12 -30 19 0 19 -56 18 -64
-1z"/>
</g>
</svg>
