<?xml version="1.0" standalone="no"?>
<!DOCTYPE svg PUBLIC "-//W3C//DTD SVG 20010904//EN"
 "http://www.w3.org/TR/2001/REC-SVG-20010904/DTD/svg10.dtd">
<svg version="1.0" xmlns="http://www.w3.org/2000/svg"
 width="75.000000pt" height="82.000000pt" viewBox="0 0 75.000000 82.000000"
 preserveAspectRatio="xMidYMid meet">

<g transform="translate(0.000000,82.000000) scale(0.100000,-0.100000)"
fill="#000000" stroke="none">
<path d="M305 771 c-89 -23 -166 -83 -210 -162 -27 -49 -30 -62 -30 -149 0
-87 3 -100 30 -149 27 -48 97 -121 117 -121 19 0 5 25 -33 62 -161 156 -95
422 119 484 183 53 363 -82 364 -273 1 -86 -24 -145 -86 -208 -25 -25 -46 -50
-46 -55 0 -22 27 -7 76 43 185 192 60 514 -206 532 -36 2 -78 1 -95 -4z"/>
<path d="M325 701 c-69 -17 -126 -64 -160 -130 -13 -25 -16 -52 -13 -106 3
-60 8 -79 33 -115 38 -54 44 -35 11 32 -73 145 19 298 179 298 161 0 256 -161
180 -305 -33 -62 -27 -82 9 -28 39 58 49 113 35 181 -9 46 -20 64 -63 107 -65
66 -129 86 -211 66z"/>
<path d="M291 604 c-18 -23 -21 -41 -21 -120 0 -56 4 -94 10 -94 6 0 10 42 10
105 0 121 3 125 93 125 74 0 81 -10 88 -134 l5 -101 2 103 c2 130 -6 142 -102
142 -58 0 -67 -3 -85 -26z"/>
<path d="M312 598 c-8 -8 -12 -47 -12 -110 l0 -98 75 0 75 0 0 98 c0 63 -4
102 -12 110 -7 7 -35 12 -63 12 -28 0 -56 -5 -63 -12z"/>
<path d="M266 372 c-3 -3 -6 -40 -6 -82 0 -81 14 -110 54 -110 9 0 19 -7 22
-15 8 -20 70 -20 78 0 3 8 14 15 24 15 38 0 52 31 52 113 l0 77 -92 1 c-51 0
-101 2 -110 4 -9 2 -19 0 -22 -3z m132 -39 c5 -17 -26 -29 -40 -15 -6 6 -7 15
-3 22 9 14 37 9 43 -7z m21 -65 c17 -45 -39 -87 -75 -58 -17 15 -18 52 -2 68
21 21 68 15 77 -10z"/>
<path d="M370 330 c0 -5 5 -10 10 -10 6 0 10 5 10 10 0 6 -4 10 -10 10 -5 0
-10 -4 -10 -10z"/>
<path d="M345 259 c-10 -30 18 -58 43 -43 9 6 17 22 17 35 0 34 -50 41 -60 8z
m53 -12 c4 -20 -25 -34 -40 -19 -15 15 -1 44 19 40 10 -2 19 -11 21 -21z"/>
<path d="M365 251 c-6 -11 9 -23 19 -14 9 9 7 23 -3 23 -6 0 -12 -4 -16 -9z"/>
<path d="M363 123 c9 -2 23 -2 30 0 6 3 -1 5 -18 5 -16 0 -22 -2 -12 -5z"/>
<path d="M346 95 c-3 -8 -14 -15 -24 -15 -18 0 -42 -18 -42 -32 0 -4 43 -8 95
-8 78 0 95 3 95 15 0 9 -12 18 -30 22 -16 3 -30 12 -30 19 0 19 -56 18 -64 -1z"/>
</g>
</svg>
